<svg width="36" height="36" viewBox="0 0 36 36" fill="none" xmlns="http://www.w3.org/2000/svg">
<path d="M6 20.2229C7.10457 20.2229 8 19.343 8 18.2575C8 17.172 7.10457 16.292 6 16.292C4.89543 16.292 4 17.172 4 18.2575C4 19.343 4.89543 20.2229 6 20.2229Z" fill="#40BA77"/>
<path d="M31 17.2749H11C10.4477 17.2749 10 17.7149 10 18.2576V19.2404C10 19.7831 10.4477 20.2231 11 20.2231H31C31.5523 20.2231 32 19.7831 32 19.2404V18.2576C32 17.7149 31.5523 17.2749 31 17.2749Z" fill="#40BA77"/>
<path d="M31 24.1543H5C4.44772 24.1543 4 24.5943 4 25.137V26.1198C4 26.6625 4.44772 27.1025 5 27.1025H31C31.5523 27.1025 32 26.6625 32 26.1198V25.137C32 24.5943 31.5523 24.1543 31 24.1543Z" fill="#40BA77"/>
<path d="M31 9.41309H5C4.44772 9.41309 4 9.85307 4 10.3958V11.3786C4 11.9213 4.44772 12.3613 5 12.3613H31C31.5523 12.3613 32 11.9213 32 11.3786V10.3958C32 9.85307 31.5523 9.41309 31 9.41309Z" fill="#40BA77"/>
</svg>
